<mxfile host="app.diagrams.net" agent="Mozilla/5.0 (Windows NT 10.0; Win64; x64) AppleWebKit/537.36 (KHTML, like Gecko) Chrome/129.0.0.0 Safari/537.36" version="24.7.17">
  <diagram name="Page-1" id="2YBvvXClWsGukQMizWep">
    <mxGraphModel dx="880" dy="460" grid="0" gridSize="10" guides="1" tooltips="1" connect="1" arrows="1" fold="1" page="0" pageScale="1" pageWidth="850" pageHeight="1100" math="0" shadow="0">
      <root>
        <mxCell id="0" />
        <mxCell id="1" parent="0" />
        <mxCell id="eZ-IsFH-W-LrvNOMkyf0-1" value="Adotante" style="shape=umlLifeline;perimeter=lifelinePerimeter;whiteSpace=wrap;html=1;container=0;dropTarget=0;collapsible=0;recursiveResize=0;outlineConnect=0;portConstraint=eastwest;newEdgeStyle={&quot;edgeStyle&quot;:&quot;elbowEdgeStyle&quot;,&quot;elbow&quot;:&quot;vertical&quot;,&quot;curved&quot;:0,&quot;rounded&quot;:0};" vertex="1" parent="1">
          <mxGeometry x="40" y="40" width="100" height="240" as="geometry" />
        </mxCell>
        <mxCell id="eZ-IsFH-W-LrvNOMkyf0-2" value="" style="html=1;points=[];perimeter=orthogonalPerimeter;outlineConnect=0;targetShapes=umlLifeline;portConstraint=eastwest;newEdgeStyle={&quot;edgeStyle&quot;:&quot;elbowEdgeStyle&quot;,&quot;elbow&quot;:&quot;vertical&quot;,&quot;curved&quot;:0,&quot;rounded&quot;:0};" vertex="1" parent="eZ-IsFH-W-LrvNOMkyf0-1">
          <mxGeometry x="45" y="70" width="10" height="160" as="geometry" />
        </mxCell>
        <mxCell id="eZ-IsFH-W-LrvNOMkyf0-3" value="Sistema" style="shape=umlLifeline;perimeter=lifelinePerimeter;whiteSpace=wrap;html=1;container=0;dropTarget=0;collapsible=0;recursiveResize=0;outlineConnect=0;portConstraint=eastwest;newEdgeStyle={&quot;edgeStyle&quot;:&quot;elbowEdgeStyle&quot;,&quot;elbow&quot;:&quot;vertical&quot;,&quot;curved&quot;:0,&quot;rounded&quot;:0};" vertex="1" parent="1">
          <mxGeometry x="260" y="40" width="100" height="240" as="geometry" />
        </mxCell>
        <mxCell id="eZ-IsFH-W-LrvNOMkyf0-4" value="" style="html=1;points=[];perimeter=orthogonalPerimeter;outlineConnect=0;targetShapes=umlLifeline;portConstraint=eastwest;newEdgeStyle={&quot;edgeStyle&quot;:&quot;elbowEdgeStyle&quot;,&quot;elbow&quot;:&quot;vertical&quot;,&quot;curved&quot;:0,&quot;rounded&quot;:0};" vertex="1" parent="eZ-IsFH-W-LrvNOMkyf0-3">
          <mxGeometry x="45" y="80" width="10" height="150" as="geometry" />
        </mxCell>
        <mxCell id="eZ-IsFH-W-LrvNOMkyf0-5" value="" style="endArrow=classic;html=1;rounded=0;" edge="1" parent="1" target="eZ-IsFH-W-LrvNOMkyf0-3">
          <mxGeometry width="50" height="50" relative="1" as="geometry">
            <mxPoint x="90" y="129.5" as="sourcePoint" />
            <mxPoint x="270" y="129.5" as="targetPoint" />
          </mxGeometry>
        </mxCell>
        <mxCell id="eZ-IsFH-W-LrvNOMkyf0-7" value="" style="endArrow=classic;html=1;rounded=0;" edge="1" parent="1" source="eZ-IsFH-W-LrvNOMkyf0-3">
          <mxGeometry width="50" height="50" relative="1" as="geometry">
            <mxPoint x="270" y="160" as="sourcePoint" />
            <mxPoint x="90" y="160" as="targetPoint" />
          </mxGeometry>
        </mxCell>
        <mxCell id="eZ-IsFH-W-LrvNOMkyf0-9" value="" style="endArrow=classic;html=1;rounded=0;" edge="1" parent="1" source="eZ-IsFH-W-LrvNOMkyf0-1" target="eZ-IsFH-W-LrvNOMkyf0-3">
          <mxGeometry width="50" height="50" relative="1" as="geometry">
            <mxPoint x="400" y="270" as="sourcePoint" />
            <mxPoint x="450" y="220" as="targetPoint" />
          </mxGeometry>
        </mxCell>
        <mxCell id="eZ-IsFH-W-LrvNOMkyf0-12" value="" style="endArrow=classic;html=1;rounded=0;" edge="1" parent="1">
          <mxGeometry width="50" height="50" relative="1" as="geometry">
            <mxPoint x="310" y="220" as="sourcePoint" />
            <mxPoint x="90" y="220" as="targetPoint" />
          </mxGeometry>
        </mxCell>
        <mxCell id="eZ-IsFH-W-LrvNOMkyf0-13" value="" style="endArrow=classic;html=1;rounded=0;" edge="1" parent="1">
          <mxGeometry width="50" height="50" relative="1" as="geometry">
            <mxPoint x="310" y="250" as="sourcePoint" />
            <mxPoint x="90" y="250" as="targetPoint" />
          </mxGeometry>
        </mxCell>
        <mxCell id="eZ-IsFH-W-LrvNOMkyf0-19" value="acessa a lista de animais" style="text;whiteSpace=wrap;html=1;" vertex="1" parent="1">
          <mxGeometry x="120" y="100" width="170" height="40" as="geometry" />
        </mxCell>
        <mxCell id="eZ-IsFH-W-LrvNOMkyf0-20" value="exibe a lista de animais" style="text;whiteSpace=wrap;html=1;" vertex="1" parent="1">
          <mxGeometry x="120" y="140" width="160" height="30" as="geometry" />
        </mxCell>
        <mxCell id="eZ-IsFH-W-LrvNOMkyf0-21" value="seleciona um animal para favoritar" style="text;whiteSpace=wrap;html=1;" vertex="1" parent="1">
          <mxGeometry x="100" y="170" width="220" height="40" as="geometry" />
        </mxCell>
        <mxCell id="eZ-IsFH-W-LrvNOMkyf0-22" value="adiciona o animal à lista de favoritos" style="text;whiteSpace=wrap;html=1;" vertex="1" parent="1">
          <mxGeometry x="100" y="200" width="230" height="40" as="geometry" />
        </mxCell>
        <mxCell id="eZ-IsFH-W-LrvNOMkyf0-23" value="confirma a adição" style="text;whiteSpace=wrap;html=1;" vertex="1" parent="1">
          <mxGeometry x="120" y="230" width="130" height="40" as="geometry" />
        </mxCell>
      </root>
    </mxGraphModel>
  </diagram>
</mxfile>
